<?xml version="1.0" encoding="utf-8"?><!-- Uploaded to: SVG Repo, www.svgrepo.com, Generator: SVG Repo Mixer Tools -->
<svg width="800px" height="800px" viewBox="0 0 24 24" fill="none" xmlns="http://www.w3.org/2000/svg">
<path d="M11.9944 10.0011L11.9944 13.9989" stroke="#1C1C1C" stroke-width="1.69904" stroke-linecap="round"/>
<path d="M13.9932 12H9.99541" stroke="#1C1C1C" stroke-width="1.69904" stroke-linecap="round"/>
<path d="M20.845 12V6.50968C20.845 4.48821 19.2062 2.84949 17.1848 2.84949H6.50419C4.48272 2.84949 2.84399 4.48821 2.84399 6.50968V17.4903C2.84399 19.5117 4.48272 21.1504 6.50419 21.1504H11.8445" stroke="#1C1C1C" stroke-width="1.69904" stroke-linecap="round"/>
<path d="M20.7847 15.8827L18.8316 13.8971C18.6335 13.6957 18.3123 13.6957 18.1142 13.8971L14.3579 17.716C14.2491 17.8266 14.1956 17.9813 14.2123 18.1368L14.4272 20.1323C14.4401 20.2525 14.5334 20.3474 14.6517 20.3605L16.6145 20.5789C16.7673 20.5959 16.9196 20.5415 17.0283 20.431L20.7847 16.612C20.9828 16.4106 20.9828 16.0841 20.7847 15.8827Z" stroke="#DF1463" stroke-width="1.69904" stroke-linecap="round"/>
</svg>