<?xml version="1.0" encoding="utf-8"?><svg version="1.1" id="Layer_1" xmlns="http://www.w3.org/2000/svg" xmlns:xlink="http://www.w3.org/1999/xlink" x="0px" y="0px" viewBox="0 0 122.88 106.19" style="enable-background:new 0 0 122.88 106.19" xml:space="preserve"><style type="text/css">.st0{fill-rule:evenodd;clip-rule:evenodd;}</style><g><path class="st0" d="M0,106.19V89.02c9.18-4.09,37.3-11.86,38.63-23.1c0.3-2.54-5.69-12.21-7.06-16.85 c-2.93-4.68-3.99-12.11-0.77-17.06c1.28-1.96,0.73-9.13,0.73-11.84c0-26.91,47.15-26.92,47.15,0c0,3.41-0.78,9.66,1.07,12.33 c3.09,4.47,1.49,12.41-1.11,16.56c-1.67,4.87-8.03,14.09-7.49,16.85c2.02,10.27,28.1,17.16,36.31,20.82l0,19.45H0L0,106.19z M109.94,36.16v12.19h12.94v9.22h-12.94v12.94h-9.22V57.57H87.79v-9.22h12.94V35.42l9.22,0V36.16L109.94,36.16L109.94,36.16z"/></g></svg>