<svg id="Layer_1" data-name="Layer 1" xmlns="http://www.w3.org/2000/svg" viewBox="0 0 122.88 121.09"><defs><style>.cls-1{fill-rule:evenodd;}</style></defs><title>add-member</title><path class="cls-1" d="M100.06,75.45A22.82,22.82,0,1,1,77.24,98.27a22.82,22.82,0,0,1,22.82-22.82ZM72.67,111.29H0c-.13-27.16,16.45-21.86,34.37-31C39,78,39.92,77.16,42.25,72a1.8,1.8,0,0,1,.25-.4c-3.25-2.9-5.8-5.85-6.34-11.89h-.4a4.87,4.87,0,0,1-2.32-.61l-.07,0a7.37,7.37,0,0,1-3-4.71A20.92,20.92,0,0,1,30,47l.11-.38a4,4,0,0,1,2.43-2.81c-.41-7.74.89-20-7-22.38C41.18,2,59.28-8.54,72.87,8.72c15.65.82,22.47,25.3,10.58,36.2a4.72,4.72,0,0,1,2.52.49,3.69,3.69,0,0,1,1.81,2.2,6.83,6.83,0,0,1-.09,3.79l-2,5.68a4.13,4.13,0,0,1-1.25,2.06,3.75,3.75,0,0,1-2.69.65l-.6-.07C81.06,65,79,68,75.94,71.07l.11.24a12.79,12.79,0,0,0,3.06,5l-.49.48c-.65.65-1.28,1.34-1.87,2a19.71,19.71,0,0,1-3.55-5.17c-4,3.84-8.14,6.52-13.91,6.5-5.54,0-10-2.63-14-6.17a28.83,28.83,0,0,1-5.07,7.38c6.17,9,21.12,11,31.51,6.12a30.41,30.41,0,0,0,1,23.74Zm-1.92-88c-5.47,5.51-11.81,5.63-17.46,6a21.17,21.17,0,0,0-8.79,3.67,11.22,11.22,0,0,0-4.41,5.48,13.9,13.9,0,0,0-.19,7.68,1.52,1.52,0,0,1-.06.84,1.49,1.49,0,0,1-1.9.87l-1.42-.51c-1.82-.63-3.11-.93-3.62.25a18.09,18.09,0,0,0,.31,6.13,4.73,4.73,0,0,0,1.65,2.88l0,0a1.75,1.75,0,0,0,.9.23,4.2,4.2,0,0,0,1.3-.23l.39-.06A1.48,1.48,0,0,1,39,58c.17,6.88,3.21,9.55,6.9,12.74l1.65,1.42c3.78,3.37,7.81,5.13,11.74,5.15s7.63-1.61,11.13-5l1.24-1.19c4.07-3.87,7-6.65,6.42-13.48a1.54,1.54,0,0,1,.24-.92,1.49,1.49,0,0,1,2-.44,3.67,3.67,0,0,0,1.48.58h.73l2.23-6.18A4,4,0,0,0,85,48.5a.75.75,0,0,0-.37-.47,1.87,1.87,0,0,0-1-.14A5.48,5.48,0,0,0,80.83,49a1.46,1.46,0,0,1-1.14.28,1.5,1.5,0,0,1-1.21-1.71c1.44-8.41.78-13.9-1-17.65a14.93,14.93,0,0,0-6.71-6.7Zm25.16,64.2c0-1.22-.12-2.1,1.4-2.07l4.91.06c1.59,0,2,.49,2,2v6.7h6.66c1.22,0,2.09-.12,2.07,1.4l-.06,4.91c0,1.59-.49,2-2,2h-6.69v6.69c0,1.49-.4,2-2,2l-4.91.06c-1.52,0-1.4-.85-1.4-2.07v-6.66h-6.7c-1.48,0-2-.4-2-2l-.06-4.91c0-1.52.85-1.4,2.07-1.4h6.66V87.46Z"/></svg>