<?xml version="1.0" encoding="utf-8"?><svg version="1.1" id="Layer_1" xmlns="http://www.w3.org/2000/svg" xmlns:xlink="http://www.w3.org/1999/xlink" x="0px" y="0px" width="110.662px" height="122.88px" viewBox="0 0 110.662 122.88" enable-background="new 0 0 110.662 122.88" xml:space="preserve"><g><path fill-rule="evenodd" clip-rule="evenodd" d="M53.332,93.189c-2.751,10.884-6.085,20.663-16.265,29.69 c19.462-4.978,34.49-15.041,45.517-29.69H53.332L53.332,93.189z M85.908,0H24.752C11.138,0,0,11.139,0,24.752v43.684 c0,13.614,11.138,24.753,24.752,24.753h61.156c13.615,0,24.754-11.139,24.754-24.753V24.752C110.662,11.139,99.523,0,85.908,0 L85.908,0z M26.221,35.117c5.599,0,10.141,4.542,10.141,10.141c0,5.599-4.542,10.141-10.141,10.141 c-5.6,0-10.141-4.542-10.141-10.141C16.08,39.658,20.621,35.117,26.221,35.117L26.221,35.117z M84.441,35.117 c5.6,0,10.141,4.542,10.141,10.141c0,5.599-4.541,10.141-10.141,10.141s-10.141-4.542-10.141-10.141 C74.301,39.658,78.842,35.117,84.441,35.117L84.441,35.117z M55.331,35.117c5.599,0,10.142,4.542,10.142,10.141 c0,5.599-4.543,10.141-10.142,10.141c-5.6,0-10.141-4.542-10.141-10.141C45.19,39.658,49.731,35.117,55.331,35.117L55.331,35.117z"/></g></svg>