<?xml version="1.0" encoding="utf-8"?>
<!-- Svg Vector Icons : http://www.onlinewebfonts.com/icon -->
<!DOCTYPE svg PUBLIC "-//W3C//DTD SVG 1.1//EN" "http://www.w3.org/Graphics/SVG/1.1/DTD/svg11.dtd">
<svg version="1.1" xmlns="http://www.w3.org/2000/svg" xmlns:xlink="http://www.w3.org/1999/xlink" x="0px" y="0px" viewBox="0 0 256 256" enable-background="new 0 0 256 256" xml:space="preserve">
<metadata> Svg Vector Icons : http://www.onlinewebfonts.com/icon </metadata>
<g><g><path fill="#000000" d="M61.3,171.6h66.4c1.4-3.6,3-7,4.9-10.3H61.3V171.6L61.3,171.6z M153.6,99.8H61.3V110h92.3V99.8L153.6,99.8z M30.5,238.3c-5.7,0-10.3-4.6-10.3-10.3V28c0-5.7,4.6-10.3,10.3-10.3h159c5.7,0,10.3,4.6,10.3,10.3v97.7c3.5,0.2,6.9,0.7,10.3,1.4V28c0-11.3-9.2-20.5-20.5-20.5h-159C19.2,7.4,10,16.6,10,28V228c0,11.3,9.2,20.5,20.5,20.5h114c-3.2-3.1-6.1-6.6-8.7-10.3H30.5L30.5,238.3z M153.6,138.4v-7.8H61.3v10.3h89.1C151.4,140,152.5,139.1,153.6,138.4L153.6,138.4z M194.6,146c-28.3,0-51.3,22.9-51.3,51.4c0,28.4,23,51.3,51.3,51.3c28.4,0,51.4-23,51.4-51.3C246,168.9,223,146,194.6,146L194.6,146z M194.6,238.3c-22.6,0-41-18.4-41-41c0-22.7,18.4-41.1,41-41.1c22.7,0,41.1,18.3,41.1,41.1C235.7,219.9,217.4,238.3,194.6,238.3L194.6,238.3z M153.6,69H61.3v10.2h92.3V69L153.6,69z M199.8,171.6h-10.3v30.8h30.8v-10.3h-20.5V171.6L199.8,171.6z"/></g></g>
</svg>