<?xml version="1.0" encoding="utf-8"?><svg version="1.1" id="Layer_1" xmlns="http://www.w3.org/2000/svg" xmlns:xlink="http://www.w3.org/1999/xlink" x="0px" y="0px" viewBox="0 0 116.96 122.88" style="enable-background:new 0 0 116.96 122.88" xml:space="preserve"><style type="text/css">.st0{fill-rule:evenodd;clip-rule:evenodd;}</style><g><path class="st0" d="M57,37.59c0.38,2.09,1.51,3.14,1.51,4.18c0,1.05-0.38,2.09-1.51,2.09c-1.13,0-1.51-1.04-1.51-2.09 C55.49,40.73,56.62,39.68,57,37.59L57,37.59z M108.29,62.52c2.71,1.9,4.48,3.92,4.48,8.6s-4.7,10.5-10.49,10.5 c-5.8,0-10.5-5.78-10.5-10.5c0-4.72,1.85-6.84,4.66-8.72V39.09c0-1.63,0.67-3.11,1.74-4.19c1.07-1.07,2.56-1.74,4.19-1.74 c1.63,0,3.11,0.67,4.19,1.74c1.07,1.07,1.74,2.56,1.74,4.19V62.52L108.29,62.52z M111.56,38.66c-0.45,0-0.82-0.45-0.82-1 c0-0.55,0.37-1,0.82-1h4.57c0.45,0,0.82,0.45,0.82,1c0,0.55-0.37,1-0.82,1H111.56L111.56,38.66z M111.56,44.33 c-0.45,0-0.82-0.45-0.82-1c0-0.55,0.37-1,0.82-1h4.57c0.45,0,0.82,0.45,0.82,1c0,0.55-0.37,1-0.82,1H111.56L111.56,44.33z M111.56,49.99c-0.45,0-0.82-0.45-0.82-1c0-0.55,0.37-1,0.82-1h4.57c0.45,0,0.82,0.45,0.82,1c0,0.55-0.37,1-0.82,1H111.56 L111.56,49.99z M111.56,55.66c-0.45,0-0.82-0.45-0.82-1c0-0.55,0.37-1,0.82-1h4.57c0.45,0,0.82,0.45,0.82,1c0,0.55-0.37,1-0.82,1 H111.56L111.56,55.66z M111.56,61.32c-0.45,0-0.82-0.45-0.82-1c0-0.55,0.37-1,0.82-1h4.57c0.45,0,0.82,0.45,0.82,1 c0,0.55-0.37,1-0.82,1H111.56L111.56,61.32z M98.45,51.95h7.84V39.09c0-1.08-0.44-2.06-1.15-2.77c-0.71-0.71-1.69-1.15-2.77-1.15 c-1.08,0-2.06,0.44-2.77,1.15c-0.71,0.71-1.15,1.69-1.15,2.77V51.95L98.45,51.95z M28.31,87.67l0.05,0.05l0.02-0.01 c1.31-1.22,2.42-2.59,3.34-4.11c0.93-1.52,1.68-3.19,2.27-5c-0.08-0.05-0.16-0.09-0.24-0.14c-6.04-3.48-11.02-9.35-13.51-17.76 c-2.66-0.16-4.73-0.93-6.28-2.07c-1.7-1.26-2.75-2.95-3.27-4.78c-0.51-1.79-0.49-3.72-0.06-5.49c0.34-1.42,0.96-2.74,1.79-3.84 c-6.44-12.78-6.37-21.26-2.29-27.1c4.93-6.83,11.8-9.28,20.72-7.07c-0.04-7.74,20.09-16,40.13-5.08 c9.15,4.99,13.75,10.72,14.64,21.52c0.41,5.06-0.53,10.18-2.77,15.37c1.61,1.22,2.76,2.99,3.37,4.96c0.51,1.62,0.65,3.38,0.38,5.07 c-0.27,1.72-0.96,3.38-2.12,4.75c-1.62,1.93-4.15,3.31-7.68,3.55c-2,7.58-6.46,13.27-12.07,16.94c0.35,1.92,0.94,3.91,1.74,5.75 c0.7,1.6,1.55,3.08,2.55,4.31c7.5,2.36,14.61,6.03,20.29,14.33c5.37,7.83,8.53,11.83,11.7,21.06c-60.06,0-76.68,0-100.59,0 C-2.54,98.89,10.14,98.62,28.31,87.67L28.31,87.67z M38.29,80.56c-0.77-0.22-1.54-0.45-2.33-0.71c-0.57,1.57-1.27,3.03-2.1,4.4 c-0.9,1.47-1.95,2.81-3.16,4.02c0.07,0.07,0.14,0.14,0.21,0.21c4.45,4.34,11.14,6.4,17.84,6.34c6.72-0.06,13.44-2.24,17.92-6.36 c0.09-0.08,0.18-0.17,0.27-0.25c-1.05-1.32-1.94-2.88-2.67-4.54c-0.68-1.57-1.22-3.23-1.59-4.86c-2.08,1.02-4.1,1.79-6.11,2.34 c-2.48,0.7-5.05,1.08-7.62,1.14C45.33,82.35,41.71,81.79,38.29,80.56L38.29,80.56z M52.02,35.39c0.63,1.57,1.44,2.59,1.44,3.6 c0,1.38-0.5,2.75-1.99,2.75c-1.49,0-1.99-1.38-1.99-2.75c0-1.1,0.95-2.2,1.59-3.99c-5.63-2.36-10.35-5.05-12.73-7.74 c-2.51,7.23-6.81,13.19-12.82,17.91c-3.01-0.85-5.83-1.23-8.41-1.05c-0.35,0.09-0.67,0.19-0.97,0.32c-0.3,0.12-0.58,0.27-0.86,0.44 c-1.15,0.91-2,2.37-2.39,4.02c-0.34,1.4-0.35,2.91,0.05,4.31c0.39,1.36,1.16,2.62,2.41,3.54c1.33,0.98,3.2,1.61,5.71,1.65 c0.54-0.03,1.05,0.32,1.2,0.86c2.22,8.21,6.92,13.88,12.65,17.18c4.28,2.46,9.15,3.61,13.99,3.51s9.66-1.46,13.84-4.01 c5.69-3.46,10.21-9.13,12.03-16.85l0,0c0.12-0.51,0.58-0.89,1.12-0.9c3.24-0.03,5.47-1.15,6.82-2.76c0.88-1.04,1.4-2.3,1.61-3.61 c0.21-1.34,0.1-2.73-0.31-4.02c-0.65-2.09-2.06-3.88-4.06-4.64c-0.34-0.13-0.58-0.39-0.69-0.71 C71.84,41.79,60.94,39.01,52.02,35.39L52.02,35.39z M56.45,51.82c-0.57,0.41-1.36,0.27-1.77-0.3c-0.41-0.57-0.27-1.36,0.3-1.77 c1.95-1.38,3.95-2.09,6-2.1c2.04-0.01,4.08,0.68,6.13,2.09c0.58,0.4,0.72,1.19,0.32,1.77c-0.4,0.58-1.19,0.72-1.77,0.32 c-1.6-1.11-3.16-1.65-4.67-1.64C59.48,50.2,57.97,50.75,56.45,51.82L56.45,51.82z M31.41,51.82c-0.57,0.41-1.36,0.27-1.77-0.3 c-0.41-0.57-0.27-1.36,0.3-1.77c1.95-1.38,3.95-2.09,6-2.1c2.04-0.01,4.08,0.68,6.13,2.09c0.58,0.4,0.72,1.19,0.32,1.77 c-0.4,0.58-1.19,0.72-1.77,0.32c-1.6-1.11-3.16-1.65-4.67-1.64C34.44,50.2,32.93,50.75,31.41,51.82L31.41,51.82z M58.31,56.53 c-0.67-0.21-1.05-0.92-0.84-1.59c0.21-0.67,0.92-1.05,1.59-0.84c0.71,0.22,1.42,0.32,2.12,0.3c0.7-0.02,1.42-0.16,2.16-0.42 c0.66-0.24,1.39,0.11,1.63,0.77c0.24,0.66-0.11,1.39-0.77,1.63c-0.98,0.35-1.96,0.54-2.95,0.56 C60.25,56.96,59.27,56.83,58.31,56.53L58.31,56.53z M32.29,56.17c-0.65-0.27-0.95-1.02-0.68-1.66c0.27-0.65,1.02-0.95,1.66-0.68 c0.86,0.37,1.73,0.56,2.59,0.57c0.86,0.01,1.74-0.15,2.63-0.5c0.65-0.25,1.39,0.07,1.64,0.73c0.25,0.65-0.07,1.39-0.73,1.64 c-1.2,0.46-2.39,0.68-3.59,0.66C34.63,56.92,33.45,56.66,32.29,56.17L32.29,56.17z M43.25,69.56c-0.57,0.41-1.36,0.27-1.77-0.3 c-0.41-0.57-0.27-1.36,0.3-1.77c1.79-1.27,4.26-1.91,6.73-1.91c2.43,0,4.9,0.63,6.75,1.9c0.58,0.4,0.72,1.19,0.32,1.77 c-0.4,0.58-1.19,0.72-1.77,0.32c-1.4-0.97-3.35-1.45-5.3-1.45C46.53,68.12,44.6,68.61,43.25,69.56L43.25,69.56z"/></g></svg>