<?xml version="1.0" encoding="utf-8"?><svg version="1.1" id="Layer_1" xmlns="http://www.w3.org/2000/svg" xmlns:xlink="http://www.w3.org/1999/xlink" x="0px" y="0px" viewBox="0 0 103.12 122.88" style="enable-background:new 0 0 103.12 122.88" xml:space="preserve"><style type="text/css">.st0{fill-rule:evenodd;clip-rule:evenodd;}</style><g><path class="st0" d="M24.35,30.23l1.48-0.04l1.23-0.03c-1.44-4.42-0.96-8.49,2.5-11.95c0.59,1.9,1.9,3.46,4.14,4.62 c1.07,0.8,2.11,1.76,3.11,2.86c0.18-0.73-0.5-1.62-1.32-2.54c0.76,0.38,1.46,0.9,1.95,1.91c0.57,1.17,0.57,2.16,0.38,3.44 c-0.09,0.59-0.23,1.15-0.44,1.65h2.05c2.16-4.62,0.79-11.49-3.63-14.39c-1.35-0.89-2.33-0.86-3.92-0.86 c-1.82,0-2.75,0.06-4.31,1.09c-2.3,1.52-3.71,4.15-4.31,7.8C23.16,25.62,23.08,28.77,24.35,30.23L24.35,30.23L24.35,30.23z M1.18,122.01C0.49,121.69,0,121,0,120.18V2c0-1.1,0.89-2,2-2H21.4h79.72c1.1,0,2,0.89,2,2v107.73c0,0.11-0.01,0.21-0.02,0.31 c-0.28,3.93-1.56,6.99-3.86,9.18c-2.3,2.18-5.53,3.4-9.72,3.64c-0.09,0.01-0.17,0.02-0.26,0.02H2.83 C2.15,122.88,1.54,122.53,1.18,122.01L1.18,122.01z M99.13,109.68V3.99H21.4H3.99v114.9h85.26l0.04,0c3.21-0.18,5.61-1.04,7.2-2.55 C98.06,114.85,98.93,112.62,99.13,109.68L99.13,109.68z M16.82,90.07c-1.09,0-1.98-0.89-1.98-2c0-1.1,0.88-2,1.98-2h70.5 c1.09,0,1.98,0.89,1.98,2c0,1.1-0.88,2-1.98,2H16.82L16.82,90.07z M17.14,73.77c-1.09,0-1.98-0.89-1.98-2s0.88-2,1.98-2h70 c1.09,0,1.98,0.89,1.98,2s-0.88,2-1.98,2H17.14L17.14,73.77z M16.82,57.46c-1.09,0-1.98-0.89-1.98-2s0.88-2,1.98-2h30.13 c1.09,0,1.98,0.89,1.98,2s-0.88,2-1.98,2H16.82L16.82,57.46z M54.64,57.46c-1.09,0-1.98-0.89-1.98-2s0.88-2,1.98-2h32.5 c1.09,0,1.98,0.89,1.98,2s-0.88,2-1.98,2H54.64L54.64,57.46z M57.91,41.16c-1.09,0-1.98-0.89-1.98-2c0-1.1,0.88-2,1.98-2h29.23 c1.09,0,1.98,0.89,1.98,2c0,1.1-0.88,2-1.98,2H57.91L57.91,41.16z M70.47,106.37c-1.09,0-1.98-0.89-1.98-2c0-1.1,0.88-2,1.98-2 h16.68c1.09,0,1.98,0.89,1.98,2c0,1.1-0.88,2-1.98,2H70.47L70.47,106.37z M70.47,24.86c-1.09,0-1.98-0.89-1.98-2 c0-1.1,0.88-2,1.98-2h16.68c1.09,0,1.98,0.89,1.98,2c0,1.1-0.88,2-1.98,2H70.47L70.47,24.86z M39.87,37.32 c-0.84-1.68-1.9-3.11-3.14-4.45c2.33,0.9,4.71,1.79,6.47,2.9c1.12,0.7,1.7,1.23,2.16,2.08c1.36,2.56,1.33,2.76,1.55,5.74h-30.1 c0.22-2.97,0.19-3.18,1.55-5.74c0.45-0.85,1.03-1.38,2.16-2.08c1.76-1.11,4.14-2,6.47-2.9c-1.24,1.34-2.3,2.77-3.14,4.45l2.43-0.06 l5.58,4.85l5.58-4.85L39.87,37.32L39.87,37.32L39.87,37.32z M29.99,38.64l1.11-3.84l-0.54-0.59c-0.24-0.36-0.3-0.67-0.16-0.94 c0.29-0.58,0.9-0.47,1.47-0.47c0.59,0,1.33-0.11,1.52,0.63c0.06,0.25-0.02,0.51-0.19,0.78l-0.54,0.59l1.11,3.84l-1.88,1.49 L29.99,38.64L29.99,38.64L29.99,38.64z"/></g></svg>