<svg class="svg-icon" style="width: 1em; height: 1em;vertical-align: middle;fill: currentColor;overflow: hidden;" viewBox="0 0 1024 1024" version="1.1" xmlns="http://www.w3.org/2000/svg"><path d="M713.38277661 592.44859619a170.7132019 170.7132019 0 1 0 170.7132019 170.71320191 170.7132019 170.7132019 0 0 0-170.7132019-170.71320191z m3.84104746 191.19878613a58.46927124 58.46927124 0 0 0-31.58194236 8.96244352 58.46927124 58.46927124 0 0 0-26.88732971 50.78717715 21.76593283 21.76593283 0 0 1-21.33915024 21.33915024 21.33915024 21.33915024 0 0 1-21.33915023-21.33915024 102.00113772 102.00113772 0 0 1 42.67830047-85.35660096 73.83345941 73.83345941 0 1 1 60.17640408 23.89984827s-0.85356601 1.70713203-1.70713201 1.70713202z m80.66198748 81.0887709a21.76593283 21.76593283 0 0 1-21.33915024-21.33915022 59.32283725 59.32283725 0 0 0-13.23027274-37.55690443 21.33915024 21.33915024 0 1 1 32.86229097-26.88732889 101.14757172 101.14757172 0 0 1 23.89984826 64.44423332 21.33915024 21.33915024 0 0 1-22.19271625 21.33915022z"  /><path d="M713.38277661 559.58630523a213.39150237 213.39150237 0 0 1 64.01745072 10.66957471V172.06733691A85.35660096 85.35660096 0 0 0 692.04362637 90.125H265.26062244a85.35660096 85.35660096 0 0 0-85.35660096 81.94233691v615.84787547a85.35660096 85.35660096 0 0 0 85.35660096 81.94233691h259.91084947A213.39150237 213.39150237 0 0 1 713.38277661 559.58630523zM340.80121386 252.30254181H564.00872494L512.79476519 200.23501523a21.33915024 21.33915024 0 1 1 30.30159293-30.30159375L631.86722311 260.8382019a21.33915024 21.33915024 0 0 1 5.97496207 14.93740476 22.19271625 22.19271625 0 0 1-5.97496207 15.36418817L543.09635812 377.77674522a21.33915024 21.33915024 0 0 1-15.36418817 5.97496205 20.05880081 20.05880081 0 0 1-14.93740475-5.97496205 21.33915024 21.33915024 0 0 1-1e-8-31.58194236L564.00872494 294.98084229H340.80121386a21.33915024 21.33915024 0 0 1-21.33915023-21.33915025 21.33915024 21.33915024 0 0 1 21.33915024-21.33915023zM265.26062244 479.77788294h426.78300393a20.91236682 20.91236682 0 1 1 0 42.67830048H265.26062244a20.91236682 20.91236682 0 1 1 0-42.67830048z m192.05235214 150.65440109H265.26062244a20.48558423 20.48558423 0 0 1-21.33915025-20.48558423 20.91236682 20.91236682 0 0 1 21.33915025-20.48558423h192.05235214a20.91236682 20.91236682 0 0 1 21.33915023 20.48558423 20.48558423 20.48558423 0 0 1-21.33915024 20.48558423z"  /></svg>