<?xml version="1.0" encoding="utf-8"?>
<!-- Generator: Adobe Illustrator 16.0.0, SVG Export Plug-In . SVG Version: 6.00 Build 0)  -->
<!DOCTYPE svg PUBLIC "-//W3C//DTD SVG 1.1//EN" "http://www.w3.org/Graphics/SVG/1.1/DTD/svg11.dtd">
<svg version="1.1" id="Layer_1" xmlns="http://www.w3.org/2000/svg" xmlns:xlink="http://www.w3.org/1999/xlink" x="0px" y="0px"
	 width="113.25px" height="122.88px" viewBox="0 0 113.25 122.88" style="enable-background:new 0 0 113.25 122.88;"
	 xml:space="preserve">
<style type="text/css">
<![CDATA[
	.st0{fill-rule:evenodd;clip-rule:evenodd;}
]]>
</style>
<g>
	<path class="st0" d="M77.59,78.72h27.16c4.67,0,8.5,3.82,8.5,8.5v27.17c0,4.67-3.82,8.49-8.5,8.49H77.59c-4.67,0-8.5-3.82-8.5-8.49
		V87.22C69.1,82.55,72.92,78.72,77.59,78.72L77.59,78.72z M60.73,113.25c1.76,0,3.18,1.42,3.18,3.18c0,1.76-1.42,3.18-3.18,3.18
		H7.39c-2.04,0-3.88-0.83-5.23-2.17C0.83,116.09,0,114.25,0,112.21V7.39c0-2.04,0.83-3.88,2.17-5.23C3.51,0.83,5.36,0,7.39,0h90.81
		c2.04,0,3.88,0.84,5.22,2.17c1.34,1.34,2.17,3.19,2.17,5.23v61.23c0,1.76-1.42,3.18-3.18,3.18c-1.75,0-3.18-1.42-3.18-3.18V7.39
		c0-0.28-0.12-0.54-0.31-0.73c-0.19-0.19-0.45-0.31-0.72-0.31H7.39c-0.28,0-0.54,0.12-0.74,0.3c-0.18,0.2-0.3,0.45-0.3,0.74v104.8
		c0,0.28,0.12,0.54,0.31,0.73c0.19,0.19,0.45,0.31,0.74,0.31L60.73,113.25L60.73,113.25L60.73,113.25z M33.04,56.37
		c-0.6-1.04-0.17-4.02,1.13-5.07c3.7-2.16,8.8-1.49,12.36-3.98c0.21-0.31,0.43-0.76,0.65-1.25c0.32-0.74,0.62-1.55,0.81-2.1
		c-0.79-0.93-1.47-1.98-2.12-3.02l-2.14-3.41c-0.78-1.17-1.19-2.24-1.21-3.11c-0.01-0.41,0.06-0.78,0.21-1.12
		c0.16-0.35,0.4-0.63,0.74-0.86c0.16-0.11,0.33-0.2,0.52-0.26c-0.14-1.85-0.19-4.18-0.1-6.13c0.04-0.46,0.14-0.93,0.26-1.39
		c0.55-1.96,1.92-3.53,3.62-4.61c0.94-0.6,1.96-1.05,3.03-1.35c0.68-0.2-0.58-2.37,0.12-2.44c3.4-0.35,8.91,2.76,11.28,5.33
		c1.19,1.29,1.94,2.99,2.1,5.25l-0.13,5.56l0,0c0.59,0.18,0.97,0.56,1.13,1.17c0.17,0.68-0.01,1.63-0.59,2.93l0,0
		c-0.01,0.02-0.02,0.05-0.04,0.07l-2.44,4.02c-0.9,1.48-1.81,2.96-2.99,4.13c0.11,0.16,0.22,0.31,0.33,0.47
		c0.48,0.71,0.97,1.42,1.6,2.05c0.02,0.02,0.04,0.04,0.05,0.07c2.81,1.99,9.65,2.47,12.28,3.93l0.11,0.06
		c1.35,1.04,1.77,4.02,1.15,5.06H33.04L33.04,56.37z M30.89,92.81c-1.75,0-3.19-1.44-3.19-3.22c0-1.77,1.42-3.22,3.19-3.22h21.62
		c1.76,0,3.19,1.44,3.19,3.22c0,1.78-1.42,3.22-3.19,3.22H30.89L30.89,92.81L30.89,92.81z M30.89,72.68c-1.75,0-3.18-1.42-3.18-3.18
		c0-1.75,1.42-3.18,3.18-3.18h42.87c1.76,0,3.18,1.42,3.18,3.18c0,1.76-1.42,3.18-3.18,3.18H30.89L30.89,72.68L30.89,72.68z
		 M88.41,90.82c0-1.53,1.24-2.77,2.77-2.77s2.77,1.24,2.77,2.77v7.21h7.21c1.53,0,2.77,1.24,2.77,2.77s-1.24,2.77-2.77,2.77h-7.21
		v7.21c0,1.53-1.24,2.77-2.77,2.77s-2.77-1.24-2.77-2.77v-7.21h-7.22c-1.53,0-2.77-1.24-2.77-2.77s1.24-2.77,2.77-2.77h7.21
		L88.41,90.82L88.41,90.82L88.41,90.82z"/>
</g>
</svg>
