<svg id="Layer_1" data-name="Layer 1" xmlns="http://www.w3.org/2000/svg" viewBox="0 0 122.88 110.75"><defs><style>.cls-1{fill-rule:evenodd;}</style></defs><title>referral-customer</title><path class="cls-1" d="M22,71.58A17.8,17.8,0,0,0,9.17,101.67C10.38,99.57,15.08,99,17,98c2.19-1.18,1.86-2.27,1.85-4.38h-3.1c-7.77,0-2.79.3-1.63-8,1.81-12.19,14.08-12.18,15.69,0,1.08,8.63,6.31,8-1.63,8H25.1c0,1.92-.34,3.08,1.59,4.23,2.53,1.52,7,1.76,8.11,4A17.79,17.79,0,0,0,22,71.58Zm12.61-39.1-1-.81c-2.26-1.34-5.66-1-7.88-2.54a4.85,4.85,0,0,1-.42-.8c-.2-.47-.39-1-.51-1.34a17.39,17.39,0,0,0,1.35-1.92l1.37-2.18a4,4,0,0,0,.77-2,1.48,1.48,0,0,0-.13-.71,1.31,1.31,0,0,0-.47-.55,1.71,1.71,0,0,0-.33-.17,33.77,33.77,0,0,0,.06-3.91,5.46,5.46,0,0,0-.17-.88,5.2,5.2,0,0,0-2.31-2.94A7.12,7.12,0,0,0,23,10.89c-.43-.13.37-1.51-.08-1.56-2.17-.22-5.68,1.76-7.19,3.4a5.28,5.28,0,0,0-1.34,3.35l.08,3.54h0a1,1,0,0,0-.72.75,3,3,0,0,0,.38,1.86h0a.08.08,0,0,0,0,.05l1.56,2.57a13.32,13.32,0,0,0,1.91,2.63l-.21.3a9,9,0,0,1-1,1.3l0,.05c-1.79,1.26-6.16,1.57-7.83,2.5l-.07,0-1,.82a17.79,17.79,0,1,1,27.22,0Zm3,13.45-6.47-6.48a21,21,0,0,1-25-33.29A21,21,0,0,1,37.8,33.7l4.47,4.47c.25-.27.5-.53.76-.79a22.92,22.92,0,0,1,32.43,0c.28.28.55.57.82.86l5-5a21,21,0,1,1,6.18,6.22L80.89,46a23,23,0,0,1-.57,16.6l10,9.51a21,21,0,1,1-6.18,6.23L75.29,70a22.94,22.94,0,0,1-29.05,2.51L40,78.41a21,21,0,0,1-32.8,25.83A21,21,0,0,1,33.93,72l6.17-5.82a23,23,0,0,1-2.48-20.29ZM86.19,34.24c1.11-2.21,5.58-2.45,8.11-4C96.23,29.12,95.9,28,95.89,26h-3c-7.94,0-2.71.63-1.63-8,1.61-12.18,13.88-12.19,15.69,0,1.16,8.3,6.13,8-1.63,8h-3.1c0,2.12-.35,3.2,1.85,4.38,1.89,1,6.59,1.63,7.81,3.72a17.79,17.79,0,1,0-25.64.1Zm2,66.94,1.05-.81c2.26-1.34,5.66-1,7.88-2.54a4.89,4.89,0,0,0,.41-.8c.21-.47.4-1,.52-1.34a16.15,16.15,0,0,1-1.35-1.92l-1.37-2.18a3.86,3.86,0,0,1-.77-2,1.48,1.48,0,0,1,.13-.71,1.31,1.31,0,0,1,.47-.55,1.71,1.71,0,0,1,.33-.17,33.77,33.77,0,0,1-.06-3.91,5.46,5.46,0,0,1,.17-.88A5.22,5.22,0,0,1,98,80.45a7.32,7.32,0,0,1,1.94-.86c.43-.13-.37-1.51.08-1.56,2.17-.22,5.68,1.76,7.19,3.4a5.28,5.28,0,0,1,1.34,3.35l-.08,3.54h0a1,1,0,0,1,.72.75,3,3,0,0,1-.38,1.86h0a.08.08,0,0,1,0,0l-1.56,2.57a13.32,13.32,0,0,1-1.91,2.63l.21.3a9.64,9.64,0,0,0,1,1.3l0,0c1.79,1.26,6.15,1.57,7.83,2.5l.07,0,1,.82a17.79,17.79,0,1,0-27.22,0ZM45.32,66.4c3-1.22,5.79-.88,8.28-2.62a7.59,7.59,0,0,0,.5-1c.25-.57.47-1.19.62-1.62a18.93,18.93,0,0,1-1.63-2.32l-1.64-2.62a4.77,4.77,0,0,1-.94-2.39,2,2,0,0,1,.16-.85,1.58,1.58,0,0,1,.57-.66,1.66,1.66,0,0,1,.4-.2,40.82,40.82,0,0,1-.08-4.71,6.92,6.92,0,0,1,.2-1.07,6.31,6.31,0,0,1,2.78-3.54,8.67,8.67,0,0,1,2.33-1c.53-.15-.44-1.82.1-1.88,2.61-.27,6.84,2.12,8.66,4.09a6.4,6.4,0,0,1,1.62,4l-.1,4.27h0a1.19,1.19,0,0,1,.86.9,3.7,3.7,0,0,1-.45,2.24h0l0,.06-1.87,3.09a16.38,16.38,0,0,1-2.3,3.17l.24.35a10.83,10.83,0,0,0,1.23,1.58l0,.05c2.45,1.73,5.32,1.42,8.29,2.63a18.91,18.91,0,1,0-27.84,0Z"/></svg>